<svg width="22" height="22" viewBox="0 0 22 22" fill="none" xmlns="http://www.w3.org/2000/svg">
<g clip-path="url(#clip0_142_582)">
<path d="M19.4735 16.5986L16.2645 13.3895C15.5965 12.7216 14.5135 12.7208 13.8448 13.3895L12.9102 14.3241C10.7748 13.02 8.98081 11.226 7.67671 9.09058L8.70143 8.06591C9.36847 7.39877 9.36848 6.31325 8.70139 5.64612L5.49239 2.43713C4.82629 1.77111 3.74481 1.76492 3.07063 2.43915L1.05411 4.47135C0.0892875 5.28149 -0.25008 6.61163 0.18992 7.87229C2.44776 14.3424 7.65849 19.5531 14.1286 21.8109C15.3459 22.2356 16.5959 21.918 17.3907 21.0991C17.4022 21.089 17.4134 21.0785 17.4243 21.0675L19.4735 19.0183C20.1407 18.3512 20.1407 17.2657 19.4735 16.5986ZM18.4513 17.9961L16.4484 19.9989C16.424 20.0192 16.4009 20.0413 16.3791 20.0649C15.9576 20.5231 15.2794 20.6814 14.6049 20.4459C8.5473 18.332 3.66884 13.4535 1.55495 7.39585C1.31291 6.70229 1.48753 5.98373 1.99985 5.56517C2.01931 5.54927 2.03796 5.53234 2.05567 5.51451L4.09492 3.45935C4.16251 3.39172 4.24153 3.38162 4.28256 3.38162C4.32364 3.38162 4.40258 3.39168 4.47021 3.45935L7.67912 6.66835C7.78258 6.77182 7.78258 6.94012 7.67916 7.04359L6.25934 8.46341C6.02985 8.69286 5.98142 9.04705 6.14083 9.3297C7.68161 12.0612 9.93966 14.3193 12.6711 15.86C12.9537 16.0194 13.3079 15.9709 13.5374 15.7415L14.8671 14.4118C14.9706 14.3083 15.1387 14.3082 15.2423 14.4118L18.4513 17.6208C18.5547 17.7243 18.5547 17.8926 18.4513 17.9961Z" fill="white"/>
<path d="M11.5544 5.64307C11.1552 5.64307 10.8315 5.96671 10.8315 6.36593C10.8315 6.76515 11.1551 7.08879 11.5544 7.08879C13.4058 7.08879 14.9119 8.59498 14.9119 10.4463C14.9119 10.8456 15.2356 11.1692 15.6348 11.1692C16.034 11.1692 16.3577 10.8456 16.3577 10.4463C16.3577 7.79782 14.2029 5.64307 11.5544 5.64307Z" fill="white"/>
<path d="M11.5544 2.80615C11.1552 2.80615 10.8315 3.12979 10.8315 3.52902C10.8315 3.92824 11.1551 4.25188 11.5544 4.25188C14.9702 4.25188 17.7491 7.0308 17.7491 10.4466C17.7491 10.8458 18.0727 11.1694 18.4719 11.1694C18.8712 11.1694 19.1948 10.8458 19.1948 10.4466C19.1948 6.23364 15.7673 2.80615 11.5544 2.80615Z" fill="white"/>
<path d="M18.9406 3.06039C16.9677 1.08748 14.3445 0.000976562 11.5543 0.000976562C11.1551 0.000976562 10.8315 0.324617 10.8315 0.72384C10.8315 1.12306 11.1551 1.4467 11.5543 1.4467C16.517 1.4467 20.5543 5.48405 20.5543 10.4466C20.5543 10.8459 20.878 11.1695 21.2772 11.1695C21.6764 11.1695 22 10.8459 22 10.4466C22 7.65646 20.9135 5.03335 18.9406 3.06039Z" fill="white"/>
</g>
<defs>
<clipPath id="clip0_142_582">
<rect width="22" height="22" fill="white"/>
</clipPath>
</defs>
</svg>
