<svg width="16" height="16" viewBox="0 0 16 16" fill="none" xmlns="http://www.w3.org/2000/svg">
<g clip-path="url(#clip0_142_55)">
<path d="M2.31125 0.8125C1.21133 0.8125 0.492188 1.53476 0.492188 2.48407C0.492188 3.41241 1.18991 4.15527 2.26904 4.15527H2.28992C3.41135 4.15527 4.10925 3.41241 4.10925 2.48407C4.08829 1.53476 3.41135 0.8125 2.31125 0.8125Z" fill="white"/>
<path d="M0.682251 5.47607H3.89777V15.1501H0.682251V5.47607Z" fill="white"/>
<path d="M11.7903 5.24902C10.0557 5.24902 8.89249 6.87903 8.89249 6.87903V5.47607H5.67688V15.1501H8.8923V9.74774C8.8923 9.45853 8.91327 9.16977 8.99823 8.96295C9.23068 8.38544 9.75967 7.78714 10.648 7.78714C11.8116 7.78714 12.2769 8.67429 12.2769 9.97479V15.1501H15.4922V9.60318C15.4922 6.63174 13.9057 5.24902 11.7903 5.24902Z" fill="white"/>
</g>
<defs>
<clipPath id="clip0_142_55">
<rect width="16" height="16" fill="white"/>
</clipPath>
</defs>
</svg>
