<svg width="16" height="16" viewBox="0 0 16 16" fill="none" xmlns="http://www.w3.org/2000/svg">
<path d="M5.21251 14.007C10.8732 14.007 13.9688 9.31731 13.9688 5.25075C13.9688 5.11756 13.966 4.98491 13.96 4.853C14.5609 4.41856 15.0831 3.87643 15.4952 3.25935C14.9438 3.50455 14.3503 3.66939 13.7279 3.74396C14.3632 3.36282 14.851 2.76014 15.0811 2.0417C14.4865 2.39422 13.828 2.65034 13.1269 2.78867C12.5654 2.19049 11.7657 1.81641 10.8804 1.81641C9.18101 1.81641 7.80274 3.19458 7.80274 4.89346C7.80274 5.13508 7.8298 5.36991 7.88255 5.5952C5.32479 5.4665 3.05663 4.24198 1.53893 2.37982C1.27475 2.83454 1.12229 3.36291 1.12229 3.92669C1.12229 4.99427 1.66561 5.937 2.49175 6.4883C1.98686 6.4728 1.51261 6.33419 1.09798 6.10349C1.09752 6.11642 1.09752 6.12899 1.09752 6.14275C1.09752 7.63321 2.15831 8.87764 3.56666 9.15962C3.30798 9.22998 3.03581 9.26787 2.75511 9.26787C2.55715 9.26787 2.36415 9.24842 2.17665 9.21237C2.56844 10.4352 3.70463 11.3249 5.05162 11.3499C3.99826 12.1755 2.67136 12.6673 1.22925 12.6673C0.981204 12.6673 0.736005 12.653 0.495117 12.6246C1.85715 13.4976 3.47447 14.0071 5.2126 14.0071" fill="#5A801B"/>
</svg>
