<svg width="175" height="56" viewBox="0 0 175 56" fill="none" xmlns="http://www.w3.org/2000/svg">
<g clip-path="url(#clip0_142_86)">
<path d="M175 50.3865C175 51.1242 174.87 51.8546 174.616 52.5361C174.363 53.2175 173.992 53.8366 173.524 54.3579C173.056 54.8793 172.5 55.2926 171.889 55.5744C171.277 55.8561 170.622 56.0008 169.961 56H5.04593C3.70929 56.0016 2.42682 55.4111 1.48056 54.3584C0.534302 53.3057 0.00174196 51.877 0 50.3865V5.62081C0.00174116 4.12966 0.534091 2.70022 1.48016 1.64637C2.42623 0.592516 3.70868 0.000387057 5.04593 0H169.959C170.621 -2.51051e-08 171.277 0.145397 171.888 0.427887C172.5 0.710378 173.055 1.12443 173.523 1.64639C173.991 2.16835 174.362 2.78799 174.615 3.46993C174.869 4.15187 174.999 4.88275 174.999 5.62081L175 50.3865Z" fill="black"/>
<path d="M38.4119 27.2189C38.3738 22.9066 41.8789 20.8086 42.0392 20.7109C40.0541 17.7633 36.9773 17.3606 35.896 17.3285C33.3119 17.0515 30.8052 18.9033 29.4888 18.9033C28.1461 18.9033 26.119 17.3553 23.9342 17.4008C21.1228 17.4449 18.4926 19.1027 17.0501 21.677C14.0731 26.9259 16.2934 34.6394 19.1455 38.8822C20.5723 40.9614 22.2395 43.2802 24.4216 43.1986C26.5565 43.1102 27.3539 41.8137 29.9302 41.8137C32.4829 41.8137 33.2317 43.1986 35.4572 43.1464C37.7484 43.1102 39.191 41.0591 40.5678 38.9625C42.2166 36.5822 42.8787 34.2354 42.905 34.1149C42.8524 34.0962 38.4566 32.3863 38.4119 27.2189ZM34.2078 14.5375C35.3561 13.075 36.1417 11.0854 35.9236 9.06641C34.2617 9.14133 32.1833 10.2371 30.9865 11.6675C29.9276 12.9278 28.9817 14.9937 29.2261 16.9365C31.0929 17.0783 33.0097 15.9771 34.2078 14.5375Z" fill="white"/>
<path d="M69.3339 42.9001H66.3503L64.716 37.6699H59.0353L57.4785 42.9001H54.5737L60.2032 25.0941H63.6794L69.3339 42.9001ZM64.2233 35.4756L62.7453 30.8261C62.589 30.3511 62.2947 29.2326 61.8638 27.4718H61.8113C61.6378 28.2291 61.3606 29.3476 60.981 30.8261L59.5279 35.4756H64.2233ZM83.7827 36.3226C83.7827 38.5062 83.2007 40.2322 82.0353 41.4993C80.9922 42.6272 79.6955 43.1905 78.1492 43.1905C76.4794 43.1905 75.2787 42.5844 74.5495 41.3695V48.1063H71.7486V34.2808C71.7486 32.9094 71.7131 31.5031 71.6448 30.0608H74.1081L74.2644 32.0959H74.317C75.2511 30.5625 76.6686 29.7958 78.5709 29.7958C80.0581 29.7958 81.2996 30.3939 82.2928 31.5914C83.2847 32.7916 83.7827 34.3678 83.7827 36.3226ZM80.9292 36.4269C80.9292 35.1773 80.6533 34.147 80.0989 33.3348C79.4932 32.4906 78.68 32.0678 77.6605 32.0678C76.9695 32.0678 76.3415 32.3032 75.7805 32.7675C75.2182 33.2358 74.8504 33.8473 74.6783 34.6046C74.6014 34.8878 74.5578 35.1793 74.5482 35.4729V37.6151C74.5482 38.5477 74.8293 39.3357 75.3916 39.9806C75.9539 40.6229 76.6844 40.9453 77.583 40.9453C78.6379 40.9453 79.4591 40.5292 80.0463 39.7037C80.6349 38.8755 80.9292 37.7837 80.9292 36.4269ZM98.2827 36.3226C98.2827 38.5062 97.7007 40.2322 96.5354 41.4993C95.4909 42.6272 94.1955 43.1905 92.6479 43.1905C90.9781 43.1905 89.7774 42.5844 89.0482 41.3695V48.1063H86.2473V34.2808C86.2473 32.9094 86.2118 31.5031 86.1435 30.0608H88.6068L88.7631 32.0959H88.8157C89.7485 30.5625 91.166 29.7958 93.0697 29.7958C94.5555 29.7958 95.797 30.3939 96.7929 31.5914C97.7834 32.7916 98.2827 34.3678 98.2827 36.3226ZM95.4279 36.4269C95.4279 35.1773 95.1506 34.147 94.5962 33.3348C93.9906 32.4906 93.18 32.0678 92.1605 32.0678C91.4695 32.0678 90.8415 32.3032 90.2779 32.7675C89.7156 33.2358 89.3491 33.8473 89.177 34.6046C89.0916 34.9578 89.0456 35.2455 89.0456 35.4729V37.6151C89.0456 38.5477 89.328 39.3357 89.8877 39.9806C90.45 40.6215 91.1805 40.9453 92.0817 40.9453C93.138 40.9453 93.9591 40.5292 94.545 39.7037C95.1336 38.8755 95.4279 37.7837 95.4279 36.4269ZM114.495 37.9054C114.495 39.4214 113.974 40.6536 112.94 41.605C111.803 42.6432 110.214 43.1637 108.178 43.1637C106.297 43.1637 104.788 42.7944 103.651 42.0545L104.298 39.6769C105.527 40.4182 106.876 40.7874 108.345 40.7874C109.401 40.7874 110.222 40.5439 110.808 40.0609C111.395 39.5766 111.692 38.929 111.692 38.1208C111.692 37.397 111.447 36.7909 110.964 36.2971C110.48 35.8048 109.678 35.3458 108.552 34.9244C105.491 33.7617 103.959 32.0611 103.959 29.8239C103.959 28.3629 104.501 27.1667 105.581 26.2314C106.661 25.2975 108.093 24.8306 109.874 24.8306C111.465 24.8306 112.791 25.1129 113.843 25.6762L113.14 28.0016C112.149 27.4557 111.031 27.1828 109.781 27.1828C108.793 27.1828 108.018 27.4303 107.463 27.9227C106.997 28.3629 106.76 28.8994 106.76 29.5363C106.76 30.2387 107.03 30.8221 107.566 31.2797C108.031 31.7011 108.879 32.1601 110.107 32.6525C111.612 33.2706 112.718 33.9905 113.426 34.8173C114.14 35.6442 114.495 36.6758 114.495 37.9054ZM123.779 32.2016H120.692V38.4353C120.692 40.0208 121.235 40.8115 122.326 40.8115C122.826 40.8115 123.242 40.7687 123.57 40.6791L123.648 42.8453C123.096 43.0553 122.369 43.161 121.469 43.161C120.363 43.161 119.499 42.8172 118.875 42.1294C118.253 41.4417 117.941 40.2897 117.941 38.6681V32.1962H116.101V30.0554H117.941V27.7046L120.692 26.859V30.0554H123.779V32.2016ZM137.681 36.3748C137.681 38.3483 137.127 39.9686 136.021 41.2357C134.863 42.5402 133.323 43.1905 131.404 43.1905C129.552 43.1905 128.079 42.5656 126.981 41.3173C125.882 40.0663 125.333 38.4901 125.333 36.5888C125.333 34.5992 125.901 32.9696 127.032 31.7025C128.166 30.4341 129.692 29.7999 131.612 29.7999C133.461 29.7999 134.947 30.426 136.072 31.6757C137.146 32.8879 137.681 34.4534 137.681 36.3748ZM134.778 36.4403C134.778 35.2642 134.528 34.2554 134.028 33.4111C133.44 32.3916 132.599 31.8818 131.51 31.8818C130.388 31.8818 129.528 32.3916 128.942 33.4111C128.44 34.2554 128.191 35.2816 128.191 36.4938C128.191 37.6713 128.44 38.6828 128.942 39.5244C129.548 40.5439 130.392 41.0537 131.487 41.0537C132.557 41.0537 133.397 40.5332 134.004 39.499C134.519 38.6346 134.778 37.6191 134.778 36.4403ZM146.789 32.5695C146.498 32.5159 146.203 32.4895 145.907 32.4906C144.921 32.4906 144.159 32.8679 143.623 33.6279C143.158 34.2969 142.924 35.1425 142.924 36.1633V42.9001H140.123V34.1042C140.126 32.7564 140.099 31.4087 140.042 30.0621H142.482L142.584 32.5187H142.662C142.959 31.6744 143.424 30.9934 144.062 30.4836C144.647 30.0381 145.357 29.7969 146.087 29.7958C146.345 29.7958 146.579 29.8146 146.787 29.848L146.789 32.5695ZM159.316 35.873C159.323 36.3066 159.289 36.74 159.214 37.1668H150.811C150.842 38.4353 151.25 39.4066 152.03 40.0756C152.738 40.6724 153.654 40.9721 154.778 40.9721C156.023 40.9721 157.158 40.7714 158.178 40.366L158.617 42.3449C157.424 42.8747 156.016 43.1383 154.391 43.1383C152.436 43.1383 150.902 42.5523 149.785 41.3829C148.671 40.2121 148.112 38.6386 148.112 36.6678C148.112 34.733 148.631 33.1208 149.671 31.8349C150.758 30.4622 152.228 29.7758 154.078 29.7758C155.895 29.7758 157.271 30.4622 158.205 31.8349C158.944 32.9227 159.316 34.2714 159.316 35.873ZM156.645 35.1331C156.665 34.2861 156.481 33.5569 156.101 32.9401C155.617 32.1454 154.87 31.7493 153.871 31.7493C152.955 31.7493 152.209 32.136 151.641 32.912C151.175 33.5288 150.898 34.2701 150.812 35.1304L156.645 35.1331Z" fill="white"/>
<path d="M58.2274 18.7991C57.4483 18.7991 56.7744 18.7603 56.2134 18.6947V10.0861C56.998 9.96266 57.7908 9.90182 58.5847 9.90413C61.7969 9.90413 63.2762 11.5137 63.2762 14.1375C63.2762 17.1641 61.5289 18.7991 58.2274 18.7991ZM58.6977 11.008C58.2642 11.008 57.895 11.0347 57.5889 11.099V17.6431C57.7544 17.6698 58.0724 17.6819 58.519 17.6819C60.6237 17.6819 61.8218 16.4616 61.8218 14.1763C61.8218 12.1386 60.738 11.008 58.6977 11.008ZM67.8862 18.8647C66.0758 18.8647 64.9026 17.4879 64.9026 15.6187C64.9026 13.6706 66.1008 12.2817 67.9886 12.2817C69.7727 12.2817 70.9722 13.593 70.9722 15.5157C70.9722 17.4879 69.736 18.8647 67.8862 18.8647ZM67.9387 13.3066C66.9442 13.3066 66.307 14.2539 66.307 15.5786C66.307 16.8777 66.9573 17.825 67.9256 17.825C68.8938 17.825 69.5441 16.8122 69.5441 15.5518C69.5441 14.2673 68.907 13.3066 67.9387 13.3066ZM81.2958 12.4115L79.358 18.7215H78.0954L77.2927 15.9813C77.0931 15.311 76.927 14.6309 76.7948 13.9435H76.7685C76.6674 14.6313 76.4756 15.3203 76.2719 15.9813L75.418 18.7215H74.1423L72.3188 12.4115H73.7337L74.4353 15.4113C74.6008 16.1258 74.7401 16.8001 74.8557 17.437H74.882C74.9831 16.9058 75.1487 16.2422 75.3917 15.4247L76.2719 12.4129H77.3939L78.236 15.3605C78.4396 16.0749 78.6052 16.7761 78.7339 17.4384H78.7707C78.86 16.7894 79.0006 16.1004 79.1911 15.3605L79.9439 12.4129L81.2958 12.4115ZM88.4295 18.7215H87.0527V15.0982C87.0527 13.9823 86.6323 13.423 85.8033 13.423C84.9874 13.423 84.4265 14.1375 84.4265 14.9684V18.7215H83.0496V14.2151C83.0496 13.6572 83.0365 13.0591 82.9984 12.4102H84.2097L84.2741 13.3842H84.3122C84.6826 12.7099 85.4341 12.2817 86.2762 12.2817C87.5769 12.2817 88.4308 13.2946 88.4308 14.943L88.4295 18.7215ZM92.2263 18.7215H90.8481V9.51611H92.2263V18.7215ZM97.2462 18.8647C95.4371 18.8647 94.2626 17.4879 94.2626 15.6187C94.2626 13.6706 95.4608 12.2817 97.3473 12.2817C99.1327 12.2817 100.331 13.593 100.331 15.5157C100.332 17.4879 99.0946 18.8647 97.2462 18.8647ZM97.2974 13.3066C96.3029 13.3066 95.6657 14.2539 95.6657 15.5786C95.6657 16.8777 96.3173 17.825 97.283 17.825C98.2525 17.825 98.9015 16.8122 98.9015 15.5518C98.9028 14.2673 98.267 13.3066 97.2974 13.3066ZM105.759 18.7215L105.66 17.995H105.623C105.202 18.5797 104.589 18.8647 103.811 18.8647C102.701 18.8647 101.913 18.0726 101.913 17.0075C101.913 15.4501 103.238 14.6446 105.533 14.6446V14.5282C105.533 13.6973 105.101 13.2812 104.247 13.2812C103.636 13.2812 103.1 13.4378 102.629 13.7495L102.349 12.8276C102.922 12.4637 103.636 12.2817 104.476 12.2817C106.094 12.2817 106.912 13.1514 106.912 14.8922V17.2163C106.912 17.8531 106.939 18.3469 107.001 18.7228L105.759 18.7215ZM105.57 15.5786C104.041 15.5786 103.274 15.9559 103.274 16.851C103.274 17.5133 103.669 17.8371 104.218 17.8371C104.919 17.8371 105.57 17.2925 105.57 16.5526V15.5786ZM113.597 18.7215L113.533 17.7086H113.495C113.099 18.474 112.435 18.8647 111.506 18.8647C110.012 18.8647 108.906 17.5267 108.906 15.6441C108.906 13.6706 110.053 12.2804 111.619 12.2804C112.448 12.2804 113.035 12.5654 113.366 13.1381H113.394V9.51611H114.772V17.0209C114.772 17.631 114.786 18.2024 114.823 18.7215H113.597ZM113.394 15.0086C113.394 14.1255 112.82 13.3722 111.943 13.3722C110.922 13.3722 110.298 14.2941 110.298 15.5919C110.298 16.8644 110.946 17.7354 111.916 17.7354C112.781 17.7354 113.394 16.9687 113.394 16.0602V15.0086ZM123.51 18.8647C121.701 18.8647 120.527 17.4879 120.527 15.6187C120.527 13.6706 121.726 12.2817 123.612 12.2817C125.398 12.2817 126.596 13.593 126.596 15.5157C126.597 17.4879 125.361 18.8647 123.51 18.8647ZM123.561 13.3066C122.568 13.3066 121.93 14.2539 121.93 15.5786C121.93 16.8777 122.581 17.825 123.548 17.825C124.517 17.825 125.166 16.8122 125.166 15.5518C125.169 14.2673 124.532 13.3066 123.561 13.3066ZM134 18.7215H132.622V15.0982C132.622 13.9823 132.201 13.423 131.373 13.423C130.557 13.423 129.997 14.1375 129.997 14.9684V18.7215H128.619V14.2151C128.619 13.6572 128.606 13.0591 128.568 12.4102H129.779L129.843 13.3842H129.881C130.251 12.7099 131.003 12.2804 131.844 12.2804C133.145 12.2804 134 13.2933 134 14.9417V18.7215ZM143.263 13.4632H141.749V16.5272C141.749 17.3072 142.014 17.6966 142.55 17.6966C142.793 17.6966 142.997 17.6698 143.161 17.631L143.199 18.6961C142.932 18.8004 142.575 18.8526 142.131 18.8526C141.046 18.8526 140.397 18.2425 140.397 16.6449V13.4632H139.493V12.4115H140.397V11.2555L141.749 10.8394V12.4102H143.263V13.4632ZM150.552 18.7215H149.177V15.125C149.177 13.9957 148.758 13.4244 147.927 13.4244C147.214 13.4244 146.549 13.9181 146.549 14.9176V18.7215H145.174V9.51611H146.549V13.3066H146.577C147.01 12.6189 147.638 12.2804 148.44 12.2804C149.751 12.2804 150.552 13.3187 150.552 14.9684V18.7215ZM158.02 15.9037H153.888C153.914 17.0985 154.691 17.7729 155.84 17.7729C156.451 17.7729 157.013 17.6685 157.51 17.4745L157.724 18.4485C157.138 18.7081 156.448 18.8379 155.646 18.8379C153.708 18.8379 152.561 17.5909 152.561 15.6575C152.561 13.7228 153.735 12.2684 155.491 12.2684C157.074 12.2684 158.067 13.4632 158.067 15.2681C158.076 15.4811 158.06 15.6945 158.02 15.9037ZM156.757 14.9042C156.757 13.9301 156.275 13.2424 155.395 13.2424C154.604 13.2424 153.978 13.9435 153.889 14.9042H156.757Z" fill="white"/>
</g>
<defs>
<clipPath id="clip0_142_86">
<rect width="175" height="56" fill="white"/>
</clipPath>
</defs>
</svg>
